<?xml version="1.0" encoding="utf-8"?>
<!-- Generator: Adobe Illustrator 27.0.1, SVG Export Plug-In . SVG Version: 6.00 Build 0)  -->
<svg version="1.1" xmlns="http://www.w3.org/2000/svg" xmlns:xlink="http://www.w3.org/1999/xlink" x="0px" y="0px"
	 viewBox="0 0 1000 1000" style="enable-background:new 0 0 1000 1000;" xml:space="preserve">
<style type="text/css">
	.st0{fill:#00CCCC;}
	.st1{fill:#1B275E;}
</style>
<g id="Layer_1">
</g>
<g id="Layer_2">
	<g>
		<g>
			<circle class="st0" cx="264.9" cy="502" r="12.6"/>
			<circle class="st0" cx="314.3" cy="502" r="12.6"/>
		</g>
		<g>
			<path class="st1" d="M564.1,431.5h-37c-38.9,0-70.5,31.6-70.5,70.5s31.6,70.5,70.5,70.5h37c38.9,0,70.5-31.6,70.5-70.5
				S603,431.5,564.1,431.5z M564.1,545h-37c-23.7,0-42.9-19.3-42.9-42.9c0-23.7,19.3-42.9,42.9-42.9h37c23.7,0,42.9,19.3,42.9,42.9
				C607,525.7,587.7,545,564.1,545z"/>
			<path class="st1" d="M417.5,572.6c-7.6,0-13.8-6.2-13.8-13.8V385.6c0-7.6,6.2-13.8,13.8-13.8c7.6,0,13.8,6.2,13.8,13.8v173.2
				C431.3,566.4,425.1,572.6,417.5,572.6z"/>
			<path class="st1" d="M266.5,628.2c-7.6,0-13.8-6.2-13.8-13.8c0-7.6,6.2-13.8,13.8-13.8h50.2c15.2,0,29.5-8.2,37.1-21.4l0.1-0.2
				l0.1-0.1c0.3-0.5,0.6-1,0.8-1.5c2.6-4.1,6.9-6.5,11.7-6.5c7.6,0,13.8,6.2,13.8,13.8c0,2.1-0.5,4.1-1.4,6
				c-0.2,0.4-0.4,0.8-0.6,1.2l-0.1,0.2c-12.5,22.3-36.1,36.1-61.6,36.1H266.5z"/>
			<path class="st1" d="M363.8,459.2l13.6-13.6c5.4-5.4,5.4-14.1,0-19.5c-2.6-2.6-6.1-4-9.8-4c-3.7,0-7.2,1.4-9.8,4l-14.8,14.8
				l-4.5-2.2c-9.7-4.8-20.2-7.2-31.1-7.2h-37c-38.9,0-70.5,31.6-70.5,70.5s31.6,70.5,70.5,70.5h37c38.9,0,70.5-31.6,70.5-70.5
				c0-13.6-3.9-26.8-11.2-38.2L363.8,459.2z M307.6,545h-37c-23.7,0-42.9-19.3-42.9-42.9c0-23.7,19.3-42.9,42.9-42.9h37
				c23.7,0,42.9,19.3,42.9,42.9C350.5,525.7,331.2,545,307.6,545z"/>
			<path class="st1" d="M798.4,451.7l-55.7,107.2c-4.4,8.4-13.1,13.7-22.6,13.7l0,0c-9.5,0-18.2-5.3-22.6-13.7l-55.7-107.2
				c-4.8-9.2,1.9-20.2,12.2-20.2h0c5.2,0,9.9,2.9,12.2,7.4l51.8,99.7c0.8,1.6,3.1,1.6,4,0l51.8-99.7c2.4-4.6,7.1-7.4,12.2-7.4l0,0
				C796.5,431.5,803.2,442.5,798.4,451.7z"/>
		</g>
	</g>
</g>
</svg>
